<svg xmlns="http://www.w3.org/2000/svg" xmlns:xlink="http://www.w3.org/1999/xlink" version="1.1" x="0px" y="0px" viewBox="0 0 512 640" enable-background="new 0 0 512 512" xml:space="preserve"><g><path fill="#000000" d="M266.672,128.305V85.336h96l-21.328-42.672L362.672,0H245.344v128.305C144.266,133.836,64,217.539,64,320   c0,106.031,85.969,192,192,192c106.047,0,192-85.969,192-192C448,217.539,367.75,133.836,266.672,128.305z M328.156,21.336   l-5.891,11.789l-4.781,9.539l4.781,9.547L328.156,64h-61.484V21.336H328.156z M376.688,440.688   c-15.688,15.672-33.938,27.984-54.25,36.578c-21.031,8.891-43.375,13.391-66.438,13.391c-23.047,0-45.391-4.5-66.422-13.391   c-20.312-8.594-38.578-20.906-54.25-36.578C119.656,425,107.344,406.75,98.75,386.422C89.844,365.406,85.344,343.047,85.344,320   s4.5-45.406,13.406-66.422c8.594-20.32,20.906-38.578,36.578-54.258s33.938-27.984,54.25-36.586   c21.031-8.891,43.375-13.398,66.422-13.398c23.062,0,45.406,4.508,66.438,13.398c20.312,8.602,38.562,20.906,54.25,36.586   s27.984,33.938,36.578,54.258c8.891,21.016,13.406,43.375,13.406,66.422s-4.516,45.406-13.406,66.422   C404.672,406.75,392.375,425,376.688,440.688z"/><path fill="#000000" d="M192,320c-23.562,0-42.656,19.094-42.656,42.656s19.094,42.688,42.656,42.688   c23.578,0,42.672-19.125,42.672-42.688S215.578,320,192,320z M192,384c-11.75,0-21.328-9.562-21.328-21.344   c0-11.75,9.578-21.312,21.328-21.312c11.766,0,21.344,9.562,21.344,21.312C213.344,374.438,203.766,384,192,384z"/><path fill="#000000" d="M341.344,341.344c-17.672,0-32,14.312-32,32c0,17.656,14.328,32,32,32s32-14.344,32-32   C373.344,355.656,359.016,341.344,341.344,341.344z M341.344,384c-5.891,0-10.672-4.781-10.672-10.656   c0-5.891,4.781-10.688,10.672-10.688c5.875,0,10.656,4.797,10.656,10.688C352,379.219,347.219,384,341.344,384z"/><path fill="#000000" d="M320,245.336c0-17.672-14.312-32-32-32c-17.672,0-32,14.328-32,32c0,17.68,14.328,32.008,32,32.008   C305.688,277.344,320,263.016,320,245.336z M288,256c-5.875,0-10.656-4.789-10.656-10.664c0-5.883,4.781-10.672,10.656-10.672   c5.891,0,10.672,4.789,10.672,10.672C298.672,251.211,293.891,256,288,256z"/></g><text x="0" y="527" fill="#000000" font-size="5px" font-weight="bold" font-family="'Helvetica Neue', Helvetica, Arial-Unicode, Arial, Sans-serif">Created by lastspark</text><text x="0" y="532" fill="#000000" font-size="5px" font-weight="bold" font-family="'Helvetica Neue', Helvetica, Arial-Unicode, Arial, Sans-serif">from the Noun Project</text></svg>